<svg width="22" height="22" viewBox="0 0 22 22" fill="none" xmlns="http://www.w3.org/2000/svg">
<path d="M7.24785 10.1139C6.79579 10.1154 6.35173 10.2333 5.95841 10.4561C6.51217 9.02278 7.43061 7.75886 8.62285 6.78947C8.69107 6.73329 8.74755 6.66423 8.78907 6.58622C8.8306 6.50822 8.85635 6.4228 8.86486 6.33484C8.87338 6.24688 8.86448 6.15811 8.83868 6.07359C8.81289 5.98907 8.7707 5.91046 8.71452 5.84225C8.65834 5.77403 8.58928 5.71755 8.51128 5.67603C8.43327 5.6345 8.34785 5.60875 8.25989 5.60024C8.17194 5.59172 8.08316 5.60062 7.99864 5.62642C7.91412 5.65221 7.83551 5.6944 7.7673 5.75058C5.32285 7.73669 4.23508 10.4867 4.23508 12.1917C4.23929 12.7945 4.41894 13.3831 4.7521 13.8856C5.08526 14.388 5.55751 14.7826 6.11119 15.0211C6.46952 15.1947 6.86193 15.2866 7.26008 15.29C7.61052 15.3071 7.96078 15.2527 8.28961 15.1304C8.61844 15.008 8.91899 14.8201 9.17304 14.5781C9.42708 14.3361 9.62934 14.045 9.76753 13.7225C9.90573 13.4 9.97699 13.0528 9.97699 12.702C9.97699 12.3511 9.90573 12.0039 9.76753 11.6814C9.62934 11.3589 9.42708 11.0678 9.17304 10.8258C8.91899 10.5838 8.61844 10.3959 8.28961 10.2736C7.96078 10.1512 7.61052 10.0969 7.26008 10.1139H7.24785Z" fill="#7838A6"/>
<path d="M14.0556 10.1139C13.6035 10.1149 13.1593 10.2328 12.7662 10.4561C13.3197 9.02425 14.2357 7.76076 15.4245 6.78944C15.4989 6.73581 15.5616 6.66752 15.6086 6.58877C15.6556 6.51002 15.686 6.42248 15.698 6.33154C15.7099 6.2406 15.7031 6.14818 15.6779 6.05997C15.6528 5.97175 15.6099 5.88962 15.5518 5.81861C15.4938 5.74761 15.4218 5.68923 15.3404 5.64708C15.2589 5.60493 15.1697 5.5799 15.0782 5.57353C14.9867 5.56715 14.8948 5.57957 14.8083 5.61001C14.7218 5.64046 14.6424 5.68829 14.5751 5.75055C12.1306 7.73667 11.0428 10.4867 11.0428 12.1917C11.0457 12.7877 11.2202 13.3703 11.5453 13.8699C11.8704 14.3694 12.3324 14.7648 12.8762 15.0089C13.2436 15.1876 13.6471 15.2795 14.0556 15.2778C14.4061 15.2948 14.7563 15.2405 15.0852 15.1181C15.414 14.9957 15.7145 14.8079 15.9686 14.5659C16.2226 14.3239 16.4249 14.0328 16.5631 13.7103C16.7013 13.3878 16.7725 13.0406 16.7725 12.6897C16.7725 12.3389 16.7013 11.9917 16.5631 11.6692C16.4249 11.3467 16.2226 11.0556 15.9686 10.8136C15.7145 10.5716 15.414 10.3837 15.0852 10.2613C14.7563 10.1389 14.4061 10.0846 14.0556 10.1017V10.1139Z" fill="#7838A6"/>
</svg>
