<svg width="302" height="491" viewBox="0 0 302 491" fill="none" xmlns="http://www.w3.org/2000/svg">
<path d="M0.0588289 89.5208C3.09766 201.269 5.1173 262.149 11.6928 354.037C17.2551 389.175 23.139 403.713 42.2318 413.632C118.269 444.792 171.609 469.74 233.464 491C258.649 490.133 267.627 480.713 275.637 459.635C289.325 385.286 291.884 303.881 301.814 200.346C303.145 160.417 297.639 144.2 275.637 127.159C195.03 78.5632 77.8607 12.1524 77.8607 12.1524C77.8607 12.1524 55.4639 -3.31909 42.2318 0.651731C26.7563 7.61903 20.0238 15.3336 11.6928 30.9718C2.08153 49.4237 -0.435785 62.2542 0.0588289 89.5208Z" fill="#0D0D0D"/>
</svg>
