<svg width="23" height="23" viewBox="0 0 23 23" fill="none" xmlns="http://www.w3.org/2000/svg">
<path d="M7.87572 11.0199C7.42366 11.0214 6.9796 11.1393 6.58628 11.3621C7.14004 9.92878 8.05848 8.66487 9.25072 7.69547C9.31894 7.6393 9.37542 7.57023 9.41694 7.49223C9.45847 7.41422 9.48422 7.32881 9.49273 7.24085C9.50124 7.15289 9.49235 7.06412 9.46655 6.9796C9.44076 6.89508 9.39857 6.81647 9.34239 6.74825C9.28621 6.68004 9.21715 6.62356 9.13915 6.58203C9.06114 6.54051 8.97572 6.51475 8.88776 6.50624C8.79981 6.49773 8.71103 6.50663 8.62651 6.53242C8.54199 6.55822 8.46338 6.60041 8.39517 6.65658C5.95072 8.6427 4.86295 11.3927 4.86295 13.0977C4.86716 13.7006 5.04681 14.2891 5.37997 14.7916C5.71313 15.294 6.18538 15.6886 6.73906 15.9271C7.09739 16.1007 7.4898 16.1926 7.88795 16.196C8.23839 16.2131 8.58865 16.1587 8.91748 16.0364C9.24631 15.914 9.54686 15.7261 9.80091 15.4841C10.055 15.2421 10.2572 14.951 10.3954 14.6285C10.5336 14.306 10.6049 13.9588 10.6049 13.608C10.6049 13.2571 10.5336 12.9099 10.3954 12.5874C10.2572 12.2649 10.055 11.9738 9.80091 11.7318C9.54686 11.4898 9.24631 11.3019 8.91748 11.1796C8.58865 11.0572 8.23839 11.0029 7.88795 11.0199H7.87572Z" fill="#7838A6"/>
<path d="M14.6835 11.0199C14.2314 11.0209 13.7872 11.1388 13.394 11.3621C13.9476 9.93026 14.8636 8.66677 16.0524 7.69545C16.1268 7.64182 16.1894 7.57352 16.2365 7.49478C16.2835 7.41603 16.3139 7.32849 16.3258 7.23755C16.3377 7.14661 16.3309 7.05418 16.3058 6.96597C16.2807 6.87776 16.2378 6.79562 16.1797 6.72462C16.1217 6.65361 16.0497 6.59524 15.9682 6.55309C15.8868 6.51094 15.7975 6.48591 15.706 6.47953C15.6145 6.47316 15.5227 6.48557 15.4362 6.51602C15.3497 6.54646 15.2703 6.59429 15.2029 6.65656C12.7585 8.64267 11.6707 11.3927 11.6707 13.0977C11.6736 13.6937 11.848 14.2763 12.1731 14.7759C12.4982 15.2754 12.9603 15.6709 13.504 15.9149C13.8715 16.0936 14.275 16.1855 14.6835 16.1838C15.0339 16.2008 15.3842 16.1465 15.713 16.0241C16.0419 15.9018 16.3424 15.7139 16.5965 15.4719C16.8505 15.2299 17.0528 14.9388 17.1909 14.6163C17.3291 14.2938 17.4004 13.9466 17.4004 13.5957C17.4004 13.2449 17.3291 12.8977 17.1909 12.5752C17.0528 12.2527 16.8505 11.9616 16.5965 11.7196C16.3424 11.4776 16.0419 11.2897 15.713 11.1673C15.3842 11.045 15.0339 10.9906 14.6835 11.0077V11.0199Z" fill="#7838A6"/>
</svg>
