<svg width="327" height="492" viewBox="0 0 327 492" fill="none" xmlns="http://www.w3.org/2000/svg">
<path d="M307.762 78.8592C317.601 178.926 322.6 233.489 326.647 316.293C325.171 348.347 321.008 362.067 303.212 373.356C231.382 410.874 181.349 439.949 122.446 466.823C97.3681 469.27 87.3797 462.016 77.011 444.238C54.885 379.671 42.9833 307.385 21.2274 216.303C15.3149 180.857 18.9099 165.688 38.7716 147.674C113.129 94.0183 221.699 19.7968 221.699 19.7968C221.699 19.7968 242.133 3.1322 255.713 4.98199C271.863 9.21772 279.428 15.2381 289.489 28.1218C301.144 43.3516 305.116 54.4744 307.762 78.8592Z" fill="url(#paint0_linear_1_675)"/>
<path d="M301.941 89.7031C298.902 201.679 296.883 262.683 290.307 354.758C284.745 389.967 278.861 404.536 259.768 414.474C183.731 445.697 130.391 470.697 68.5355 492C43.3511 491.131 34.3726 481.692 26.3625 460.571C12.6754 386.071 10.1155 304.5 0.186245 200.754C-1.14472 160.744 4.36056 144.494 26.3626 127.418C106.97 78.7232 224.139 12.1772 224.139 12.1772C224.139 12.1772 246.536 -3.32585 259.768 0.653059C275.244 7.63454 281.976 15.3648 290.307 31.0348C299.918 49.5243 302.436 62.381 301.941 89.7031Z" fill="#0D0D0D"/>
<defs>
<linearGradient id="paint0_linear_1_675" x1="163.323" y1="-2.55984e-06" x2="289.146" y2="484.632" gradientUnits="userSpaceOnUse">
<stop offset="0.260884" stop-color="#C12D6A"/>
<stop offset="1" stop-color="#2C153C"/>
</linearGradient>
</defs>
</svg>
